<?xml version="1.0" standalone="no"?>
<!DOCTYPE svg PUBLIC "-//W3C//DTD SVG 20010904//EN"
 "http://www.w3.org/TR/2001/REC-SVG-20010904/DTD/svg10.dtd">
<svg version="1.0" xmlns="http://www.w3.org/2000/svg"
 width="100.000000pt" height="100.000000pt" viewBox="0 0 100.000000 100.000000"
 preserveAspectRatio="xMidYMid meet">

<g transform="translate(0.000000,100.000000) scale(0.100000,-0.100000)"
fill="#000000" stroke="none">
<path d="M268 733 c7 -3 16 -2 19 1 4 3 -2 6 -13 5 -11 0 -14 -3 -6 -6z"/>
<path d="M313 707 c9 -20 14 -23 29 -13 13 8 23 8 35 0 30 -19 25 -31 -16 -38
-37 -6 -91 -51 -91 -77 0 -16 -126 -11 -140 6 -16 19 -9 45 15 59 11 6 25 17
31 25 6 8 20 12 33 8 13 -3 21 -1 21 8 0 20 -39 7 -82 -27 -67 -52 -40 -98 55
-98 57 0 57 0 57 -30 0 -44 23 -92 67 -140 45 -50 169 -140 193 -140 9 0 45
20 81 45 53 37 72 45 114 47 l50 1 -55 6 c-47 5 -55 9 -58 28 -2 17 6 26 35
39 21 10 44 26 51 36 16 21 35 23 51 4 6 -7 22 -11 36 -8 18 3 27 -1 32 -14 4
-11 13 -24 21 -30 25 -19 10 -48 -28 -55 -35 -6 -35 -6 -4 -8 32 -1 54 14 54
37 0 24 -52 82 -74 82 -35 0 -51 17 -48 50 8 72 -49 150 -109 150 -43 0 -101
-26 -126 -57 l-22 -27 -28 31 c-16 17 -38 33 -49 37 -11 3 -31 20 -43 37 -16
21 -29 29 -45 27 -13 -1 -30 3 -39 10 -14 12 -15 11 -4 -11z m191 -183 c4 -9
1 -23 -5 -31 -10 -12 -14 -12 -26 0 -16 15 -7 47 12 47 7 0 16 -7 19 -16z m66
-14 c0 -26 -15 -33 -30 -15 -10 12 -10 18 0 30 15 18 30 11 30 -15z m-110 -74
c-18 -23 -30 -20 -30 7 0 32 11 40 29 23 12 -12 12 -18 1 -30z m160 25 c0 -4
-6 -15 -13 -25 -12 -16 -14 -16 -26 -2 -11 13 -11 19 -1 30 11 14 40 12 40 -3z
m-76 -16 c6 -11 19 -26 29 -33 40 -31 10 -59 -61 -57 -58 2 -81 33 -42 57 11
7 20 18 20 23 0 15 22 36 34 32 5 -2 14 -12 20 -22z"/>
</g>
</svg>
